<svg id="Layer_1" enable-background="new 0 0 512 512" height="512" viewBox="0 0 512 512" width="512" xmlns="http://www.w3.org/2000/svg"><g><path d="m504.5 218.5h-30.69c-2.271-13.273-5.76-26.323-10.411-38.94l26.559-15.333c1.723-.995 2.979-2.633 3.495-4.554.515-1.921.245-3.969-.75-5.691l-30-51.962c-.995-1.723-2.633-2.979-4.554-3.495-1.919-.513-3.968-.245-5.691.75l-26.604 15.36c-8.608-10.332-18.154-19.877-28.487-28.487l15.36-26.604c.995-1.723 1.264-3.77.75-5.691-.515-1.921-1.772-3.56-3.495-4.554l-51.961-30c-3.587-2.072-8.174-.842-10.245 2.745l-15.336 26.557c-12.618-4.65-25.667-8.139-38.94-10.411v-30.69c0-4.142-3.358-7.5-7.5-7.5h-60c-4.142 0-7.5 3.358-7.5 7.5v30.69c-13.273 2.271-26.323 5.76-38.94 10.411l-15.333-26.558c-2.071-3.587-6.658-4.816-10.245-2.745l-51.961 30c-3.587 2.071-4.816 6.658-2.745 10.245l15.36 26.604c-10.333 8.61-19.879 18.156-28.487 28.487l-26.604-15.36c-1.723-.995-3.772-1.264-5.691-.75-1.922.515-3.56 1.772-4.554 3.495l-30 51.962c-2.071 3.587-.842 8.174 2.745 10.245l26.558 15.333c-4.65 12.618-8.139 25.667-10.411 38.94h-30.692c-4.142 0-7.5 3.358-7.5 7.5v60c0 4.142 3.358 7.5 7.5 7.5h30.69c2.271 13.273 5.76 26.323 10.411 38.94l-26.558 15.333c-3.587 2.071-4.816 6.658-2.745 10.245l30 51.961c2.072 3.588 6.659 4.817 10.245 2.745l26.604-15.36c8.608 10.332 18.154 19.877 28.487 28.487l-15.36 26.604c-2.071 3.587-.842 8.174 2.745 10.245l51.961 30c1.721.994 3.77 1.264 5.691.75 1.921-.515 3.56-1.772 4.554-3.495l15.333-26.558c12.618 4.65 25.667 8.139 38.94 10.411v30.69c0 4.142 3.358 7.5 7.5 7.5h60c4.142 0 7.5-3.358 7.5-7.5v-30.69c13.273-2.271 26.323-5.76 38.94-10.411l15.334 26.559c.995 1.723 2.633 2.979 4.554 3.495 1.922.514 3.969.245 5.691-.75l51.961-30c1.723-.995 2.979-2.633 3.495-4.554.515-1.921.245-3.968-.75-5.691l-15.36-26.604c10.333-8.61 19.879-18.156 28.487-28.487l26.604 15.36c3.586 2.071 8.173.841 10.245-2.745l30-51.961c.995-1.723 1.264-3.77.75-5.691-.515-1.921-1.772-3.559-3.495-4.554l-26.559-15.333c4.65-12.618 8.139-25.667 10.411-38.94h30.69c4.142 0 7.5-3.358 7.5-7.5v-60c.004-4.142-3.354-7.5-7.496-7.5zm-7.5 60h-29.611c-3.739 0-6.906 2.753-7.427 6.456-2.314 16.451-6.629 32.59-12.825 47.97-1.396 3.465-.029 7.43 3.207 9.298l25.619 14.791-22.5 38.971-25.66-14.814c-3.232-1.867-7.346-1.071-9.651 1.866-10.243 13.056-22.057 24.87-35.115 35.115-2.937 2.305-3.732 6.418-1.866 9.651l14.815 25.66-38.971 22.5-14.791-25.619c-1.868-3.236-5.832-4.602-9.298-3.207-15.38 6.196-31.52 10.511-47.97 12.825-3.702.521-6.456 3.688-6.456 7.427v29.61h-45v-29.611c0-3.739-2.753-6.906-6.456-7.427-16.451-2.314-32.59-6.629-47.97-12.825-3.465-1.397-7.43-.03-9.298 3.207l-14.791 25.618-38.971-22.5 14.814-25.66c1.867-3.233 1.071-7.346-1.866-9.651-13.058-10.245-24.872-22.059-35.115-35.115-2.305-2.938-6.418-3.733-9.651-1.866l-25.66 14.814-22.5-38.971 25.618-14.791c3.235-1.868 4.603-5.833 3.207-9.298-6.196-15.38-10.511-31.52-12.825-47.97-.521-3.702-3.688-6.456-7.427-6.456h-29.609v-45h29.611c3.739 0 6.906-2.753 7.427-6.456 2.314-16.451 6.629-32.59 12.825-47.97 1.396-3.465.029-7.43-3.207-9.298l-25.618-14.791 22.5-38.972 25.66 14.815c3.232 1.867 7.347 1.071 9.651-1.866 10.243-13.056 22.057-24.87 35.115-35.115 2.937-2.305 3.732-6.418 1.866-9.651l-14.814-25.66 38.971-22.5 14.791 25.618c1.868 3.236 5.834 4.604 9.298 3.207 15.38-6.196 31.52-10.511 47.97-12.825 3.702-.521 6.456-3.688 6.456-7.427v-29.607h45v29.611c0 3.739 2.753 6.906 6.456 7.427 16.451 2.314 32.59 6.629 47.97 12.825 3.465 1.396 7.43.029 9.298-3.207l14.791-25.619 38.971 22.5-14.815 25.66c-1.867 3.233-1.071 7.346 1.866 9.651 13.058 10.245 24.872 22.059 35.115 35.115 2.304 2.937 6.417 3.733 9.651 1.866l25.66-14.815 22.5 38.972-25.619 14.791c-3.235 1.868-4.603 5.833-3.207 9.298 6.196 15.38 10.511 31.52 12.825 47.97.521 3.702 3.688 6.456 7.427 6.456h29.609z"/><path d="m368.111 113.486c-44.008-34.666-101.261-46.835-157.073-33.39-31.741 7.646-60.762 23.943-83.926 47.129-23.162 23.184-39.433 52.22-47.055 83.97-8.902 37.086-6.674 74.892 6.442 109.33 1.14 2.993 3.988 4.833 7.01 4.833.887 0 1.79-.159 2.668-.493 3.871-1.474 5.814-5.808 4.339-9.678-12.037-31.604-14.068-66.354-5.874-100.49 6.976-29.061 21.873-55.642 43.08-76.869 21.209-21.229 47.775-36.149 76.827-43.147 51.316-12.362 103.903-1.213 144.278 30.59 40.349 31.783 63.49 79.433 63.49 130.731 0 5.721-.293 11.489-.872 17.143-.422 4.121 2.577 7.803 6.697 8.225 4.13.426 7.803-2.577 8.225-6.697.63-6.159.95-12.441.95-18.67.002-55.927-25.223-107.872-69.206-142.517z"/><path d="m424.232 300.527c-3.951-1.228-8.159.979-9.389 4.934-10.31 33.147-31.382 62.915-59.336 83.82-28.9 21.613-63.31 33.038-99.507 33.038-57.815 0-110.617-29.33-141.245-78.457-2.191-3.515-6.816-4.588-10.332-2.396-3.515 2.191-4.588 6.817-2.396 10.332 15.996 25.657 38.341 47.1 64.62 62.011 27.108 15.38 58.006 23.51 89.353 23.51 39.461 0 76.976-12.458 108.49-36.025 30.466-22.784 53.435-55.235 64.676-91.377 1.23-3.956-.979-8.16-4.934-9.39z"/><path d="m147.81 165.873c-3.318-2.481-8.018-1.803-10.498 1.515-27.569 36.869-36.244 84.251-23.803 129.996 13.279 48.822 51.796 87.502 100.52 100.945 13.974 3.855 28.041 5.742 41.896 5.741 38.704-.002 75.688-14.732 103.862-42.41 38.244-37.57 52.937-91.691 39.302-144.773-13.013-50.664-52.469-90.406-102.971-103.716-46.9-12.36-95.019-2.64-132.019 26.671-3.247 2.572-3.794 7.289-1.222 10.536 2.572 3.246 7.29 3.793 10.536 1.222 33.262-26.35 76.592-35.069 118.881-23.924 45.25 11.926 80.603 47.539 92.265 92.942 12.288 47.839-.903 96.565-35.285 130.341-34.398 33.792-83.468 46.094-131.258 32.91-43.64-12.04-78.14-46.688-90.035-90.422-11.222-41.259-3.443-83.932 21.341-117.077 2.484-3.317 1.805-8.016-1.512-10.497z"/><path d="m256 355.817c4.142 0 7.5-3.358 7.5-7.5v-162.916l8.558 8.558c1.464 1.464 3.384 2.197 5.303 2.197s3.839-.732 5.303-2.197c2.929-2.929 2.929-7.678 0-10.606l-21.361-21.361c-2.929-2.929-7.678-2.929-10.606 0l-21.361 21.361c-2.929 2.929-2.929 7.678 0 10.606 2.929 2.929 7.678 2.929 10.606 0l8.558-8.558v162.916c0 4.142 3.358 7.5 7.5 7.5z"/><path d="m203.289 215.038c.504-4.111-2.419-7.854-6.53-8.358l-29.984-3.682c-1.977-.242-3.964.31-5.532 1.534-1.567 1.225-2.584 3.022-2.827 4.996l-3.681 29.984c-.504 4.111 2.419 7.854 6.53 8.358.311.038.619.057.923.057 3.734 0 6.968-2.786 7.435-6.587l1.475-12.012 33.391 42.738v50.544c0 4.142 3.358 7.5 7.5 7.5s7.5-3.358 7.5-7.5v-53.127c0-1.673-.56-3.299-1.59-4.618l-34.981-44.774 12.012 1.475c4.12.512 7.854-2.417 8.359-6.528z"/><path d="m292.511 269.484v53.127c0 4.142 3.358 7.5 7.5 7.5s7.5-3.358 7.5-7.5v-50.544l33.391-42.738 1.475 12.012c.467 3.801 3.7 6.587 7.435 6.587.305 0 .613-.019.923-.057 4.111-.505 7.035-4.247 6.53-8.358l-3.681-29.984c-.243-1.974-1.259-3.771-2.827-4.996s-3.555-1.778-5.532-1.534l-29.984 3.682c-4.111.504-7.035 4.247-6.53 8.358.505 4.112 4.25 7.028 8.358 6.53l12.012-1.475-34.981 44.774c-1.029 1.318-1.589 2.943-1.589 4.616z"/></g></svg>